<?xml version="1.0" encoding="UTF-8"?>
<svg xmlns="http://www.w3.org/2000/svg" xmlns:xlink="http://www.w3.org/1999/xlink" width="30px" height="30px" viewBox="0 0 30 30" version="1.1">
<g id="surface1">
<path style=" stroke:none;fill-rule:nonzero;fill:rgb(99.607843%,99.607843%,99.607843%);fill-opacity:1;" d="M 0 0 C 9.898438 0 19.800781 0 30 0 C 30 9.898438 30 19.800781 30 30 C 20.101562 30 10.199219 30 0 30 C 0 20.101562 0 10.199219 0 0 Z M 0 0 "/>
<path style=" stroke:none;fill-rule:nonzero;fill:rgb(20.392157%,71.372551%,27.450982%);fill-opacity:1;" d="M 0 15.25 C 4.867188 15.25 9.734375 15.25 14.75 15.25 C 14.75 20.117188 14.75 24.984375 14.75 30 C 9.882812 30 5.015625 30 0 30 C 0 25.132812 0 20.265625 0 15.25 Z M 0 15.25 "/>
<path style=" stroke:none;fill-rule:nonzero;fill:rgb(94.117647%,9.803922%,10.196079%);fill-opacity:1;" d="M 15.25 0 C 20.117188 0 24.984375 0 30 0 C 30 4.867188 30 9.734375 30 14.75 C 27.613281 14.753906 25.226562 14.761719 22.765625 14.765625 C 22.011719 14.769531 21.257812 14.769531 20.480469 14.773438 C 19.882812 14.773438 19.289062 14.773438 18.695312 14.773438 C 18.382812 14.777344 18.074219 14.777344 17.75 14.777344 C 17.457031 14.777344 17.164062 14.777344 16.859375 14.777344 C 16.472656 14.777344 16.472656 14.777344 16.082031 14.78125 C 15.5 14.75 15.5 14.75 15.25 14.5 C 15.226562 14.046875 15.21875 13.59375 15.222656 13.140625 C 15.222656 12.847656 15.222656 12.550781 15.222656 12.25 C 15.222656 11.9375 15.222656 11.625 15.226562 11.304688 C 15.226562 11.019531 15.226562 10.734375 15.226562 10.441406 C 15.226562 9.371094 15.230469 8.304688 15.234375 7.234375 C 15.238281 4.847656 15.246094 2.460938 15.25 0 Z M 15.25 0 "/>
<path style=" stroke:none;fill-rule:nonzero;fill:rgb(97.647059%,58.431375%,1.568628%);fill-opacity:1;" d="M 0 0 C 4.867188 0 9.734375 0 14.75 0 C 14.75 1.484375 14.75 2.96875 14.75 4.5 C 14.5 4.75 14.5 4.75 13.578125 4.777344 C 13.164062 4.777344 12.753906 4.777344 12.34375 4.773438 C 12.019531 4.773438 12.019531 4.773438 11.6875 4.773438 C 10.996094 4.773438 10.300781 4.769531 9.609375 4.765625 C 9.140625 4.765625 8.671875 4.761719 8.203125 4.761719 C 7.050781 4.757812 5.902344 4.753906 4.75 4.75 C 4.75 6.566406 4.75 8.378906 4.75 10.25 C 6.398438 10.25 8.050781 10.25 9.75 10.25 C 9.75 10.003906 9.75 9.753906 9.75 9.5 C 8.265625 9.5 6.78125 9.5 5.25 9.5 C 5.25 8.097656 5.25 6.695312 5.25 5.25 C 8.386719 5.25 11.519531 5.25 14.75 5.25 C 14.753906 6.769531 14.761719 8.292969 14.765625 9.859375 C 14.769531 10.339844 14.769531 10.820312 14.773438 11.316406 C 14.773438 11.695312 14.773438 12.074219 14.773438 12.453125 C 14.777344 12.652344 14.777344 12.847656 14.777344 13.054688 C 14.777344 13.535156 14.765625 14.019531 14.75 14.5 C 14.5 14.75 14.5 14.75 13.917969 14.78125 C 13.664062 14.78125 13.40625 14.777344 13.140625 14.777344 C 12.699219 14.777344 12.699219 14.777344 12.25 14.777344 C 11.78125 14.777344 11.78125 14.777344 11.304688 14.773438 C 11.019531 14.773438 10.734375 14.773438 10.441406 14.773438 C 9.371094 14.773438 8.304688 14.769531 7.234375 14.765625 C 4.847656 14.761719 2.460938 14.753906 0 14.75 C 0 9.882812 0 5.015625 0 0 Z M 0 0 "/>
<path style=" stroke:none;fill-rule:nonzero;fill:rgb(28.235295%,51.764709%,97.254902%);fill-opacity:1;" d="M 22.75 19.75 C 25.140625 19.75 27.535156 19.75 30 19.75 C 30 23.132812 30 26.515625 30 30 C 28.851562 30.003906 27.699219 30.011719 26.515625 30.015625 C 26.152344 30.019531 25.789062 30.019531 25.414062 30.023438 C 25.132812 30.023438 24.847656 30.023438 24.554688 30.023438 C 24.117188 30.027344 24.117188 30.027344 23.671875 30.027344 C 23 30 23 30 22.75 29.75 C 22.726562 29.011719 22.722656 28.277344 22.726562 27.539062 C 22.726562 27.316406 22.726562 27.09375 22.726562 26.867188 C 22.726562 26.15625 22.730469 25.445312 22.734375 24.734375 C 22.734375 24.253906 22.738281 23.773438 22.738281 23.292969 C 22.742188 22.113281 22.746094 20.929688 22.75 19.75 Z M 22.75 19.75 "/>
<path style=" stroke:none;fill-rule:nonzero;fill:rgb(27.058825%,50.980395%,97.254902%);fill-opacity:1;" d="M 15.25 19.75 C 17.558594 19.75 19.871094 19.75 22.25 19.75 C 22.25 23.132812 22.25 26.515625 22.25 30 C 19.941406 30 17.628906 30 15.25 30 C 15.25 26.617188 15.25 23.234375 15.25 19.75 Z M 15.25 19.75 "/>
<path style=" stroke:none;fill-rule:nonzero;fill:rgb(27.058825%,50.980395%,96.862745%);fill-opacity:1;" d="M 23 15.25 C 25.308594 15.25 27.621094 15.25 30 15.25 C 30 16.488281 30 17.726562 30 19 C 27.691406 19 25.378906 19 23 19 C 23 17.761719 23 16.523438 23 15.25 Z M 23 15.25 "/>
<path style=" stroke:none;fill-rule:nonzero;fill:rgb(27.058825%,50.980395%,96.862745%);fill-opacity:1;" d="M 15.25 15.25 C 17.558594 15.25 19.871094 15.25 22.25 15.25 C 22.25 16.488281 22.25 17.726562 22.25 19 C 19.941406 19 17.628906 19 15.25 19 C 15.25 17.761719 15.25 16.523438 15.25 15.25 Z M 15.25 15.25 "/>
<path style=" stroke:none;fill-rule:nonzero;fill:rgb(87.058824%,90.980393%,99.215686%);fill-opacity:1;" d="M 15 15.5 C 15.082031 15.5 15.164062 15.5 15.25 15.5 C 15.25 16.65625 15.25 17.808594 15.25 19 C 17.558594 19 19.871094 19 22.25 19 C 22.25 17.84375 22.25 16.691406 22.25 15.5 C 22.496094 15.5 22.746094 15.5 23 15.5 C 23 16.65625 23 17.808594 23 19 C 25.308594 19 27.621094 19 30 19 C 30 19.246094 30 19.496094 30 19.75 C 27.609375 19.75 25.214844 19.75 22.75 19.75 C 22.875 24.824219 22.875 24.824219 23 30 C 22.753906 30 22.503906 30 22.25 30 C 22.25 26.617188 22.25 23.234375 22.25 19.75 C 19.941406 19.75 17.628906 19.75 15.25 19.75 C 15.25 23.132812 15.25 26.515625 15.25 30 C 15.085938 30 14.921875 30 14.75 30 C 14.742188 28.539062 14.738281 27.074219 14.734375 25.613281 C 14.734375 25.117188 14.734375 24.621094 14.730469 24.125 C 14.71875 21.238281 14.75 18.378906 15 15.5 Z M 15 15.5 "/>
<path style=" stroke:none;fill-rule:nonzero;fill:rgb(94.117647%,14.117648%,14.509805%);fill-opacity:1;" d="M 15.25 0 C 15.414062 0 15.578125 0 15.75 0 C 15.75 4.703125 15.75 9.40625 15.75 14.25 C 20.453125 14.25 25.15625 14.25 30 14.25 C 30 14.414062 30 14.578125 30 14.75 C 28.113281 14.753906 26.226562 14.761719 24.339844 14.761719 C 23.464844 14.765625 22.589844 14.765625 21.714844 14.769531 C 20.707031 14.773438 19.703125 14.773438 18.695312 14.773438 C 18.378906 14.777344 18.066406 14.777344 17.738281 14.777344 C 17.449219 14.777344 17.160156 14.777344 16.859375 14.777344 C 16.472656 14.777344 16.472656 14.777344 16.082031 14.78125 C 15.5 14.75 15.5 14.75 15.25 14.5 C 15.226562 14.046875 15.21875 13.59375 15.222656 13.140625 C 15.222656 12.851562 15.222656 12.558594 15.222656 12.261719 C 15.222656 11.945312 15.222656 11.628906 15.226562 11.304688 C 15.226562 10.980469 15.226562 10.660156 15.226562 10.328125 C 15.226562 9.472656 15.230469 8.617188 15.234375 7.761719 C 15.234375 6.886719 15.238281 6.015625 15.238281 5.140625 C 15.242188 3.429688 15.246094 1.714844 15.25 0 Z M 15.25 0 "/>
<path style=" stroke:none;fill-rule:nonzero;fill:rgb(99.607843%,96.470588%,92.156863%);fill-opacity:1;" d="M 4.75 4.75 C 4.914062 4.75 5.078125 4.75 5.25 4.75 C 5.25 6.316406 5.25 7.886719 5.25 9.5 C 6.734375 9.5 8.21875 9.5 9.75 9.5 C 9.75 9.746094 9.75 9.996094 9.75 10.25 C 8.101562 10.25 6.449219 10.25 4.75 10.25 C 4.75 8.433594 4.75 6.621094 4.75 4.75 Z M 4.75 4.75 "/>
<path style=" stroke:none;fill-rule:nonzero;fill:rgb(98.823529%,99.607843%,99.215686%);fill-opacity:1;" d="M 7.25 19.75 C 7.414062 19.75 7.578125 19.75 7.75 19.75 C 7.75 20.65625 7.75 21.566406 7.75 22.5 C 8.65625 22.5 9.566406 22.5 10.5 22.5 C 10.5 22.664062 10.5 22.828125 10.5 23 C 9.59375 23 8.683594 23 7.75 23 C 7.75 23.90625 7.75 24.816406 7.75 25.75 C 7.585938 25.75 7.421875 25.75 7.25 25.75 C 7.25 24.84375 7.25 23.933594 7.25 23 C 6.34375 23 5.433594 23 4.5 23 C 4.5 22.835938 4.5 22.671875 4.5 22.5 C 5.40625 22.5 6.316406 22.5 7.25 22.5 C 7.25 21.59375 7.25 20.683594 7.25 19.75 Z M 7.25 19.75 "/>
</g>
</svg>
